<svg width="200" height="150" viewBox="0 0 200 150" fill="none" xmlns="http://www.w3.org/2000/svg">
  <defs>
    <linearGradient id="editorGradient" x1="0%" y1="0%" x2="100%" y2="100%">
      <stop offset="0%" stop-color="#8b5cf6"/>
      <stop offset="100%" stop-color="#6366f1"/>
    </linearGradient>
  </defs>
  
  <!-- Editor window frame -->
  <rect x="25" y="20" width="150" height="110" rx="8" fill="#1e1e2e" stroke="#374151" stroke-width="1"/>
  
  <!-- Window title bar -->
  <rect x="25" y="20" width="150" height="24" rx="8" fill="#2d2d3d"/>
  <rect x="25" y="36" width="150" height="8" fill="#2d2d3d"/>
  
  <!-- Window buttons -->
  <circle cx="40" cy="32" r="4" fill="#ef4444"/>
  <circle cx="54" cy="32" r="4" fill="#eab308"/>
  <circle cx="68" cy="32" r="4" fill="#22c55e"/>
  
  <!-- Sidebar indicator -->
  <rect x="25" y="44" width="35" height="86" fill="#252535"/>
  <rect x="30" y="52" width="25" height="6" rx="2" fill="#374151"/>
  <rect x="30" y="62" width="20" height="6" rx="2" fill="#8b5cf6" opacity="0.5"/>
  <rect x="30" y="72" width="22" height="6" rx="2" fill="#374151"/>
  <rect x="30" y="82" width="18" height="6" rx="2" fill="#374151"/>
  
  <!-- Editor content area -->
  <!-- Markdown heading -->
  <rect x="68" y="52" width="60" height="8" rx="2" fill="#8b5cf6"/>
  
  <!-- Text lines -->
  <rect x="68" y="68" width="95" height="5" rx="1" fill="#6b7280"/>
  <rect x="68" y="78" width="80" height="5" rx="1" fill="#6b7280"/>
  <rect x="68" y="88" width="88" height="5" rx="1" fill="#6b7280"/>
  
  <!-- Bold text indicator -->
  <rect x="68" y="100" width="25" height="5" rx="1" fill="#a78bfa"/>
  <rect x="98" y="100" width="50" height="5" rx="1" fill="#6b7280"/>
  
  <!-- Cursor blink line -->
  <rect x="68" y="112" width="2" height="10" fill="#8b5cf6"/>
  
  <!-- Decorative sparkle -->
  <path d="M165 25 L167 30 L172 32 L167 34 L165 39 L163 34 L158 32 L163 30 Z" fill="#8b5cf6" opacity="0.6"/>
</svg>
