<svg width="200" height="150" viewBox="0 0 200 150" fill="none" xmlns="http://www.w3.org/2000/svg">
  <defs>
    <linearGradient id="cloudGradient" x1="0%" y1="0%" x2="100%" y2="100%">
      <stop offset="0%" stop-color="#8b5cf6"/>
      <stop offset="100%" stop-color="#6366f1"/>
    </linearGradient>
    <linearGradient id="deviceGradient" x1="0%" y1="0%" x2="0%" y2="100%">
      <stop offset="0%" stop-color="#374151"/>
      <stop offset="100%" stop-color="#1f2937"/>
    </linearGradient>
  </defs>
  
  <!-- Cloud -->
  <path d="M140 55 C140 40 125 30 110 35 C105 25 90 20 75 28 C60 22 45 35 48 50 C35 52 30 65 40 75 L160 75 C172 65 165 50 150 50 C150 48 145 45 140 55 Z" fill="url(#cloudGradient)"/>
  
  <!-- Sync arrows in cloud -->
  <g transform="translate(100, 55)">
    <path d="M-12 -5 L-12 5 L-20 0 Z" fill="white" opacity="0.8"/>
    <path d="M12 5 L12 -5 L20 0 Z" fill="white" opacity="0.8"/>
    <path d="M-12 0 C-12 -8 12 -8 12 0" stroke="white" stroke-width="2" fill="none" opacity="0.8"/>
    <path d="M12 0 C12 8 -12 8 -12 0" stroke="white" stroke-width="2" fill="none" opacity="0.8"/>
  </g>
  
  <!-- Connection lines -->
  <line x1="60" y1="85" x2="60" y2="95" stroke="#8b5cf6" stroke-width="2" stroke-dasharray="3,2"/>
  <line x1="100" y1="80" x2="100" y2="90" stroke="#8b5cf6" stroke-width="2" stroke-dasharray="3,2"/>
  <line x1="140" y1="85" x2="140" y2="95" stroke="#8b5cf6" stroke-width="2" stroke-dasharray="3,2"/>
  
  <!-- Laptop -->
  <g transform="translate(85, 95)">
    <rect x="0" y="0" width="30" height="20" rx="2" fill="url(#deviceGradient)" stroke="#4b5563" stroke-width="1"/>
    <rect x="3" y="3" width="24" height="14" rx="1" fill="#1e1e2e"/>
    <rect x="6" y="6" width="10" height="2" fill="#8b5cf6" opacity="0.6"/>
    <rect x="6" y="10" width="15" height="1" fill="#6b7280"/>
    <path d="M-5 20 L35 20 L32 24 L-2 24 Z" fill="#374151"/>
  </g>
  
  <!-- Phone -->
  <g transform="translate(50, 100)">
    <rect x="0" y="0" width="18" height="30" rx="3" fill="url(#deviceGradient)" stroke="#4b5563" stroke-width="1"/>
    <rect x="2" y="4" width="14" height="20" rx="1" fill="#1e1e2e"/>
    <rect x="4" y="7" width="8" height="2" fill="#8b5cf6" opacity="0.6"/>
    <rect x="4" y="11" width="10" height="1" fill="#6b7280"/>
    <rect x="4" y="14" width="7" height="1" fill="#6b7280"/>
    <circle cx="9" cy="27" r="2" fill="#4b5563"/>
  </g>
  
  <!-- Tablet -->
  <g transform="translate(130, 100)">
    <rect x="0" y="0" width="24" height="32" rx="3" fill="url(#deviceGradient)" stroke="#4b5563" stroke-width="1"/>
    <rect x="2" y="3" width="20" height="24" rx="1" fill="#1e1e2e"/>
    <rect x="4" y="6" width="10" height="2" fill="#8b5cf6" opacity="0.6"/>
    <rect x="4" y="10" width="14" height="1" fill="#6b7280"/>
    <rect x="4" y="13" width="12" height="1" fill="#6b7280"/>
    <circle cx="12" cy="29" r="1.5" fill="#4b5563"/>
  </g>
</svg>
